PathFileType	4	(X/Y/Z)	/tmp/tmp4hfz6umo/results/MarkerData/levelground_ccw_fast_01_01.trc
DataRate	CameraRate	NumFrames	NumMarkers	Units	OrigDataRate	OrigDataStartFrame	OrigNumFrames
200	200	12	28	m	200	383	3067
Frame#	Time	L_ASIS			L_Ankle_Lat			L_Heel			L_Knee_Lat			L_PSIS			L_Shank_Front			L_Shank_Rear			L_Shank_Upper			L_Thigh_Front			L_Thigh_Rear			L_Thigh_Upper			L_Toe_Lat			L_Toe_Med			L_Toe_Tip			R_ASIS			R_Ankle_Lat			R_Heel			R_Knee_Lat			R_PSIS			R_Shank_Front			R_Shank_Rear			R_Shank_Upper			R_Thigh_Front			R_Thigh_Rear			R_Thigh_Upper			R_Toe_Lat			R_Toe_Med			R_Toe_Tip		
		X1	Y1	Z1	X2	Y2	Z2	X3	Y3	Z3	X4	Y4	Z4	X5	Y5	Z5	X6	Y6	Z6	X7	Y7	Z7	X8	Y8	Z8	X9	Y9	Z9	X10	Y10	Z10	X11	Y11	Z11	X12	Y12	Z12	X13	Y13	Z13	X14	Y14	Z14	X15	Y15	Z15	X16	Y16	Z16	X17	Y17	Z17	X18	Y18	Z18	X19	Y19	Z19	X20	Y20	Z20	X21	Y21	Z21	X22	Y22	Z22	X23	Y23	Z23	X24	Y24	Z24	X25	Y25	Z25	X26	Y26	Z26	X27	Y27	Z27	X28	Y28	Z28

384	1.92	0.42337	1.00257	-0.228728	0.433606	0.0607514	-0.104708	0.475442	0.0227323	-0.0443949	0.405159	0.48596	-0.134233	0.478694	1.05759	-0.0503634	0.394213	0.297597	-0.109094	0.398924	0.28215	-0.0606753	0.383549	0.347255	-0.0742587	0.360919	0.781654	-0.173658	0.372585	0.786048	-0.101745	0.363208	0.853029	-0.140189	0.391711	0.00948066	-0.206736	0.49667	0.0144197	-0.266593	0.468029	0.0361641	-0.262247	0.692503	1.00619	-0.208569	0.685862	0.0582822	-0.0717488	0.636721	0.0207652	-0.0180104	0.713472	0.499053	-0.133785	0.590198	1.094	-0.0470594	0.727129	0.297414	-0.096955	0.708342	0.302259	-0.0394199	0.732287	0.360002	-0.0677055	0.74727	0.765971	-0.18834	0.75138	0.752059	-0.120587	0.752188	0.819823	-0.126534	0.739519	0.0140874	-0.168889	0.639731	0.0168733	-0.237903	0.669494	0.0418342	-0.230876
385	1.925	0.42359	1.00249	-0.228785	0.4335	0.0609597	-0.104497	0.475462	0.0227325	-0.0443942	0.405418	0.485886	-0.134077	0.478801	1.0575	-0.050366	0.394301	0.297517	-0.10893	0.399496	0.281813	-0.0604656	0.383686	0.34734	-0.0740193	0.36125	0.781645	-0.173606	0.372736	0.786066	-0.101672	0.363432	0.853057	-0.140135	0.391874	0.00960907	-0.206726	0.496762	0.0145339	-0.26655	0.468084	0.0361324	-0.262169	0.692827	1.00624	-0.208535	0.685928	0.0583143	-0.0717266	0.636744	0.0207692	-0.0180009	0.713541	0.498987	-0.133697	0.590382	1.094	-0.0468962	0.728025	0.298615	-0.0961717	0.708515	0.302245	-0.0393444	0.732913	0.360424	-0.0674788	0.74745	0.765909	-0.188285	0.751588	0.752085	-0.120496	0.752389	0.819825	-0.126475	0.739534	0.0140997	-0.168885	0.639762	0.0169192	-0.23788	0.669554	0.0418806	-0.230844
386	1.93	0.423789	1.00246	-0.228847	0.433434	0.0607574	-0.10474	0.475465	0.0227219	-0.0444149	0.405544	0.485908	-0.133824	0.478852	1.05746	-0.0503584	0.394208	0.297665	-0.108812	0.397653	0.283322	-0.0607451	0.383806	0.347469	-0.0737892	0.361505	0.781633	-0.173566	0.372875	0.786062	-0.101629	0.36363	0.853055	-0.140129	0.391909	0.00958109	-0.206724	0.496835	0.0146849	-0.266482	0.468016	0.0360149	-0.262203	0.693068	1.00628	-0.2085	0.685944	0.0584003	-0.0716989	0.636766	0.0207963	-0.0179839	0.713692	0.499039	-0.13354	0.590526	1.094	-0.0467277	0.730047	0.301431	-0.0943025	0.708663	0.302228	-0.0392876	0.733543	0.360859	-0.0672531	0.747588	0.76579	-0.188291	0.751779	0.752103	-0.120423	0.752588	0.819829	-0.126421	0.739543	0.0141249	-0.16888	0.639757	0.0169134	-0.237898	0.66957	0.0418903	-0.230845
387	1.935	0.424083	1.00244	-0.228878	0.434789	0.0596532	-0.105269	0.475453	0.0227269	-0.0444259	0.405773	0.48587	-0.133446	0.478944	1.05738	-0.0503023	0.394164	0.297779	-0.108666	0.396478	0.28429	-0.0609001	0.383898	0.347577	-0.073586	0.3618	0.781604	-0.173512	0.373006	0.786045	-0.101616	0.363819	0.853125	-0.140087	0.391859	0.00966254	-0.206695	0.496729	0.0145243	-0.266556	0.467832	0.0358038	-0.26232	0.693284	1.00632	-0.208469	0.685918	0.0583597	-0.0717158	0.636786	0.0208243	-0.017964	0.713882	0.49916	-0.133335	0.590717	1.09397	-0.0465242	0.730938	0.302606	-0.0935022	0.708786	0.302211	-0.0392325	0.733799	0.36094	-0.0671546	0.747643	0.765696	-0.188311	0.751946	0.752115	-0.120365	0.752778	0.819831	-0.126379	0.739533	0.0141461	-0.168878	0.639753	0.0169274	-0.237898	0.669544	0.0418889	-0.230856
388	1.94	0.424375	1.00244	-0.228878	0.438021	0.0575617	-0.105935	0.475459	0.0227702	-0.0444026	0.406345	0.485544	-0.132892	0.479067	1.0573	-0.0502383	0.394114	0.297789	-0.108519	0.396389	0.284395	-0.0608612	0.383979	0.347598	-0.0734224	0.36221	0.78144	-0.173436	0.373171	0.786029	-0.101572	0.36402	0.853185	-0.140045	0.391753	0.00969131	-0.206669	0.496727	0.0144971	-0.266577	0.467762	0.0357032	-0.26236	0.693523	1.00636	-0.208463	0.685914	0.0583156	-0.0717195	0.636795	0.0208095	-0.0179455	0.714079	0.499278	-0.133124	0.590949	1.09393	-0.0463177	0.730841	0.302369	-0.09362	0.708899	0.302187	-0.0391658	0.733847	0.360845	-0.0671238	0.747621	0.765693	-0.188307	0.752106	0.752114	-0.120313	0.752971	0.819819	-0.12634	0.739524	0.0141565	-0.168869	0.639709	0.0169033	-0.237893	0.669539	0.0419405	-0.230828
389	1.945	0.424545	1.00246	-0.228875	0.438626	0.0572867	-0.105778	0.475506	0.0228642	-0.0443352	0.406677	0.485407	-0.132443	0.479177	1.05722	-0.0501539	0.394222	0.297686	-0.10841	0.396632	0.284247	-0.0607764	0.384072	0.347629	-0.0732537	0.362484	0.781338	-0.173351	0.373373	0.786035	-0.101483	0.364217	0.853182	-0.14005	0.391778	0.00967317	-0.206666	0.496784	0.0145545	-0.266547	0.467775	0.0356523	-0.262311	0.693916	1.00654	-0.208497	0.685939	0.0583071	-0.071707	0.6368	0.0207729	-0.0179264	0.714243	0.499338	-0.132954	0.59117	1.09394	-0.0461052	0.729913	0.300979	-0.0944158	0.709013	0.302156	-0.0390954	0.733806	0.360693	-0.0671097	0.747705	0.765701	-0.188271	0.752266	0.752081	-0.120293	0.753174	0.819795	-0.126324	0.739523	0.0141519	-0.168859	0.639651	0.0168458	-0.237913	0.669387	0.0418715	-0.230898
390	1.95	0.424681	1.00247	-0.228881	0.435292	0.0596284	-0.104877	0.475533	0.022858	-0.044319	0.407392	0.485244	-0.131486	0.479321	1.05715	-0.050075	0.394373	0.297559	-0.108323	0.396584	0.284362	-0.0607278	0.384174	0.347663	-0.0731143	0.362866	0.781132	-0.173239	0.373569	0.786051	-0.101407	0.364391	0.853148	-0.140083	0.391792	0.00970048	-0.206691	0.496862	0.014607	-0.26654	0.467788	0.0356467	-0.262339	0.694427	1.00682	-0.20857	0.685967	0.0582893	-0.0717013	0.636809	0.0207477	-0.0179225	0.714359	0.499334	-0.13284	0.591415	1.09401	-0.0459221	0.728513	0.298931	-0.095564	0.709113	0.302103	-0.0390381	0.733751	0.360534	-0.067081	0.747992	0.765704	-0.188173	0.752425	0.752033	-0.12031	0.753352	0.819766	-0.126339	0.739522	0.014135	-0.168865	0.63972	0.0169382	-0.23786	0.669312	0.0417679	-0.230946
391	1.955	0.424842	1.00244	-0.228838	0.43361	0.06084	-0.104415	0.475553	0.022862	-0.0443095	0.407962	0.485319	-0.130339	0.479503	1.05711	-0.0500048	0.394377	0.297615	-0.108206	0.39633	0.28472	-0.0606835	0.384263	0.347689	-0.0730121	0.363171	0.781049	-0.17304	0.373749	0.786222	-0.101215	0.364547	0.853152	-0.140098	0.391802	0.00967939	-0.206738	0.496867	0.0145622	-0.266586	0.467775	0.0356642	-0.262417	0.694705	1.00688	-0.208652	0.685974	0.0582223	-0.0717285	0.636807	0.0207238	-0.0179454	0.714515	0.499395	-0.132706	0.591693	1.09403	-0.0457872	0.728866	0.299373	-0.0952291	0.709185	0.302032	-0.0389951	0.733888	0.360501	-0.0670169	0.748299	0.76568	-0.188097	0.752574	0.75198	-0.120353	0.753505	0.819745	-0.126379	0.739504	0.0141087	-0.168889	0.639974	0.0172512	-0.237713	0.669478	0.0418478	-0.230832
392	1.96	0.42511	1.00247	-0.228854	0.433559	0.0609698	-0.104289	0.475521	0.0227862	-0.0443684	0.408532	0.485207	-0.129605	0.479692	1.05707	-0.0499446	0.394799	0.297331	-0.108163	0.396417	0.284738	-0.0605859	0.38434	0.347685	-0.0729345	0.363432	0.780981	-0.172853	0.373933	0.786533	-0.100896	0.364694	0.853087	-0.140152	0.391865	0.00960894	-0.206775	0.496821	0.0144509	-0.266639	0.467744	0.0356232	-0.262422	0.694766	1.0067	-0.20873	0.685941	0.0581862	-0.0717452	0.636789	0.0206941	-0.017968	0.714623	0.499409	-0.132597	0.591998	1.09392	-0.0456616	0.727924	0.298008	-0.096054	0.709243	0.301974	-0.0389496	0.733851	0.360411	-0.0669759	0.748622	0.765714	-0.188027	0.752716	0.751938	-0.120399	0.753658	0.819751	-0.126411	0.739488	0.014095	-0.168905	0.640076	0.0173645	-0.237672	0.669537	0.0418872	-0.230795
393	1.965	0.425312	1.00248	-0.228884	0.433788	0.0610416	-0.104172	0.475496	0.0227124	-0.0444103	0.408884	0.484984	-0.129296	0.479866	1.05703	-0.0499209	0.395125	0.297076	-0.108076	0.396651	0.284591	-0.0604649	0.384429	0.347686	-0.0728387	0.363657	0.780838	-0.172797	0.374105	0.786554	-0.100804	0.364846	0.853004	-0.14019	0.391948	0.00957292	-0.206765	0.496879	0.0145218	-0.2666	0.467827	0.0356351	-0.262392	0.694859	1.00658	-0.208773	0.685945	0.0581545	-0.0717352	0.636781	0.0206835	-0.0179578	0.71471	0.499389	-0.13249	0.592252	1.09385	-0.0455378	0.727311	0.297005	-0.0965808	0.709309	0.301952	-0.0388783	0.733889	0.360378	-0.0668879	0.748879	0.765689	-0.188015	0.752862	0.751925	-0.12043	0.753839	0.819781	-0.126418	0.739488	0.0140944	-0.168899	0.639993	0.017247	-0.237721	0.669598	0.0419334	-0.230764
394	1.97	0.425412	1.00254	-0.228909	0.433885	0.0610654	-0.104152	0.475536	0.0227484	-0.0443791	0.408537	0.48487	-0.129552	0.480041	1.05699	-0.0499045	0.395153	0.297137	-0.108004	0.396773	0.284547	-0.0603832	0.384528	0.347704	-0.0727298	0.363738	0.780689	-0.17292	0.374242	0.786102	-0.101093	0.365017	0.852951	-0.140172	0.391888	0.00942885	-0.206729	0.497018	0.0146922	-0.266526	0.467993	0.0357545	-0.262356	0.694951	1.00652	-0.208807	0.686027	0.0581564	-0.0716896	0.636798	0.0207054	-0.0179174	0.714792	0.499327	-0.132398	0.592482	1.09378	-0.0453998	0.727431	0.297033	-0.096488	0.709383	0.301952	-0.0387809	0.733966	0.360375	-0.066742	0.748918	0.765614	-0.1881	0.753023	0.751939	-0.120447	0.754051	0.819831	-0.126406	0.739498	0.0141063	-0.168868	0.639861	0.0170781	-0.237771	0.669571	0.0419124	-0.23078
395	1.975	0.425522	1.00259	-0.228941	0.433923	0.0610955	-0.104107	0.475644	0.0229561	-0.0442618	0.407623	0.485191	-0.130391	0.480231	1.05697	-0.0498882	0.395055	0.297305	-0.107931	0.396719	0.28472	-0.0603371	0.384631	0.34772	-0.0726443	0.363617	0.780794	-0.173084	0.374383	0.785692	-0.101355	0.365198	0.852895	-0.140175	0.391695	0.00919116	-0.206714	0.496984	0.0145559	-0.266611	0.468155	0.035878	-0.262267	0.695114	1.00651	-0.208842	0.686065	0.0581896	-0.0716584	0.636842	0.0207712	-0.0178678	0.714879	0.499312	-0.132311	0.592726	1.09375	-0.045268	0.727457	0.296923	-0.0964084	0.709447	0.301953	-0.0386871	0.73404	0.360393	-0.0666245	0.748918	0.765625	-0.188163	0.753192	0.751966	-0.120476	0.754265	0.819884	-0.126401	0.739517	0.0141485	-0.168838	0.63982	0.0170503	-0.237803	0.669462	0.0418409	-0.230841
